<?xml version="1.0" encoding="UTF-8"?>
<svg version="1.1" xmlns="http://www.w3.org/2000/svg" width="320" height="328">
<path d="M0 0 C13.60729471 5.94673881 20.80797006 18.54194329 26.375 31.6875 C30.24586451 41.59743185 33.37565075 52.23720084 34.8125 62.7890625 C36.03058315 71.23105546 37.76612246 75.37529542 44.57421875 80.65625 C45.43660156 81.2853125 46.29898438 81.914375 47.1875 82.5625 C48.53373723 83.71425267 49.86807674 84.88012478 51.1875 86.0625 C51.83074219 86.62195313 52.47398437 87.18140625 53.13671875 87.7578125 C55.44838797 89.79208141 57.7228143 91.8647231 60 93.9375 C63.37690982 96.99108867 66.81967132 99.90679205 70.375 102.75 C76.44566662 107.65654731 82.07818915 112.99450617 87.7578125 118.34375 C92.58110828 122.88454216 97.57169338 127.20118519 102.63671875 131.46875 C103.26118896 131.99774902 103.88565918 132.52674805 104.52905273 133.07177734 C105.77104122 134.1232651 107.01648171 135.17069344 108.26586914 136.21337891 C111.6573841 139.0857796 114.52669565 141.96646244 117.1875 145.5625 C110.73694641 152.63372541 104.22301964 159.58210581 97.41015625 166.30859375 C95.45319519 168.2930692 93.61923809 170.31730374 91.8125 172.4375 C88.77319277 175.99536202 85.51386306 179.27691994 82.1875 182.5625 C78.28853905 186.41371613 74.57925698 190.32671734 71.02734375 194.50390625 C67.8595372 198.04835222 64.43104766 201.33644758 61.03125 204.65625 C58.86030511 206.8210449 56.84442064 209.08347592 54.84375 211.40625 C50.53211065 216.38555869 45.84779169 220.95317175 41.1484375 225.5625 C37.19711134 229.46805791 33.46526101 233.47839878 29.83984375 237.6875 C27.41254306 240.44188376 24.81513617 243.00107747 22.1875 245.5625 C18.14379964 249.55073814 14.27592237 253.61153976 10.58984375 257.9375 C8.88461909 259.91347064 7.06986824 261.75542649 5.1875 263.5625 C0.85360201 261.89642729 -1.94545035 258.68721393 -5.125 255.4375 C-5.66833984 254.89351563 -6.21167969 254.34953125 -6.77148438 253.7890625 C-9.66291579 250.86690749 -12.42862801 247.87778685 -15.10546875 244.7578125 C-19.42190457 239.77320704 -24.11749919 235.18742617 -28.8125 230.5625 C-38.44160795 221.07711008 -38.44160795 221.07711008 -42.28125 216.59375 C-46.67392928 211.47067206 -51.50971559 206.79735253 -56.3125 202.0625 C-61.72777696 196.72381819 -67.03744651 191.39331485 -71.98486328 185.6171875 C-75.79664602 181.33185976 -79.92662787 177.34696409 -84 173.3125 C-84.88880859 172.42820313 -85.77761719 171.54390625 -86.69335938 170.6328125 C-88.3389254 168.99590084 -89.98552431 167.36002632 -91.63354492 165.72558594 C-93.07568208 164.29395174 -94.48469336 162.82808882 -95.85668945 161.32910156 C-97.86207793 159.21320358 -97.86207793 159.21320358 -101.625 158.8125 C-105.12422855 159.05181877 -106.86520014 160.00789831 -109.3125 162.5 C-117.90112565 173.68653951 -122.23528322 188.12852983 -127.16235352 201.15307617 C-135.95546982 224.22927183 -135.95546982 224.22927183 -143.8125 231.5625 C-145.1325 231.5625 -146.4525 231.5625 -147.8125 231.5625 C-148.3691692 227.67123141 -148.92021263 223.77920716 -149.46655273 219.88647461 C-149.74246458 217.9284749 -150.02254124 215.97106351 -150.30273438 214.01367188 C-155.10430641 179.70425712 -156.56287965 140.80263401 -135.30859375 111.48828125 C-131.6068438 106.99978335 -127.23573551 103.31554831 -122.8125 99.5625 C-121.95060059 98.79474243 -121.95060059 98.79474243 -121.07128906 98.01147461 C-90.00319615 70.38562858 -90.00319615 70.38562858 -72.9375 70.4375 C-72.09445313 70.43492188 -71.25140625 70.43234375 -70.3828125 70.4296875 C-67.8125 70.5625 -67.8125 70.5625 -65.34765625 71.375 C-62.59010956 71.85222678 -62.59010956 71.85222678 -60.05078125 69.5703125 C-59.06137156 68.62394987 -58.08679803 67.66191178 -57.125 66.6875 C-56.06430613 65.66354012 -55.00310045 64.64011015 -53.94140625 63.6171875 C-53.41562988 63.10124023 -52.88985352 62.58529297 -52.34814453 62.05371094 C-50.14149337 59.91090883 -47.85610764 57.86150343 -45.5625 55.8125 C-44.76457031 55.09449219 -43.96664062 54.37648437 -43.14453125 53.63671875 C-40.230734 51.04504984 -37.27820461 48.50011177 -34.30859375 45.97265625 C-31.25891626 43.09815606 -31.48583395 39.95917251 -31.0625 35.9375 C-29.59439878 23.94410735 -26.77939108 9.2782396 -17.12109375 1.13671875 C-11.35600169 -2.61639488 -6.22745551 -2.11149663 0 0 Z M-5.8125 36.5625 C4.91106417 47.13865507 4.91106417 47.13865507 17.1875 55.5625 C15.36327825 44.26404216 15.36327825 44.26404216 9.40625 34.9375 C6.76989394 33.30370188 5.2040893 33.15963494 2.125 33.1875 C0.83916016 33.17589844 0.83916016 33.17589844 -0.47265625 33.1640625 C-3.21562296 33.63114531 -4.09349347 34.43205912 -5.8125 36.5625 Z M-7.8125 116.5625 C-8.1425 120.1925 -8.4725 123.8225 -8.8125 127.5625 C-15.64794392 131.63121662 -22.13460031 130.44636363 -29.8125 129.5625 C-30.1425 125.6025 -30.4725 121.6425 -30.8125 117.5625 C-34.09501296 120.58193244 -34.09501296 120.58193244 -34.8671875 124.55078125 C-34.55324528 128.61155556 -34.17924201 131.03530836 -31.8125 134.4375 C-27.33690428 137.60771363 -23.02938525 139.68439186 -17.44140625 139.47265625 C-11.98205101 138.50599133 -8.62373579 136.55964973 -4.8125 132.5625 C-2.89962043 129.40209027 -2.80686139 127.7232003 -2.9375 124 C-3.88225144 120.28847649 -4.87607114 118.93058779 -7.8125 116.5625 Z " fill="#C4DBF1" transform="translate(180.8125,43.4375)"/>
<path d="M0 0 C13.60729471 5.94673881 20.80797006 18.54194329 26.375 31.6875 C30.24586451 41.59743185 33.37565075 52.23720084 34.8125 62.7890625 C36.03058315 71.23105546 37.76612246 75.37529542 44.57421875 80.65625 C45.43660156 81.2853125 46.29898438 81.914375 47.1875 82.5625 C48.53373723 83.71425267 49.86807674 84.88012478 51.1875 86.0625 C51.83074219 86.62195313 52.47398437 87.18140625 53.13671875 87.7578125 C55.44838797 89.79208141 57.7228143 91.8647231 60 93.9375 C63.37690982 96.99108867 66.81967132 99.90679205 70.375 102.75 C76.44566662 107.65654731 82.07818915 112.99450617 87.7578125 118.34375 C92.58110828 122.88454216 97.57169338 127.20118519 102.63671875 131.46875 C103.26118896 131.99774902 103.88565918 132.52674805 104.52905273 133.07177734 C105.77104122 134.1232651 107.01648171 135.17069344 108.26586914 136.21337891 C111.6573841 139.0857796 114.52669565 141.96646244 117.1875 145.5625 C110.73694641 152.63372541 104.22301964 159.58210581 97.41015625 166.30859375 C95.45319519 168.2930692 93.61923809 170.31730374 91.8125 172.4375 C88.77319277 175.99536202 85.51386306 179.27691994 82.1875 182.5625 C78.28853905 186.41371613 74.57925698 190.32671734 71.02734375 194.50390625 C67.8595372 198.04835222 64.43104766 201.33644758 61.03125 204.65625 C58.86030511 206.8210449 56.84442064 209.08347592 54.84375 211.40625 C50.53211065 216.38555869 45.84779169 220.95317175 41.1484375 225.5625 C37.19711134 229.46805791 33.46526101 233.47839878 29.83984375 237.6875 C27.41254306 240.44188376 24.81513617 243.00107747 22.1875 245.5625 C18.14379964 249.55073814 14.27592237 253.61153976 10.58984375 257.9375 C8.88461909 259.91347064 7.06986824 261.75542649 5.1875 263.5625 C0.85360201 261.89642729 -1.94545035 258.68721393 -5.125 255.4375 C-5.66833984 254.89351563 -6.21167969 254.34953125 -6.77148438 253.7890625 C-9.66291579 250.86690749 -12.42862801 247.87778685 -15.10546875 244.7578125 C-19.42190457 239.77320704 -24.11749919 235.18742617 -28.8125 230.5625 C-38.44160795 221.07711008 -38.44160795 221.07711008 -42.28125 216.59375 C-46.67392928 211.47067206 -51.50971559 206.79735253 -56.3125 202.0625 C-61.72777696 196.72381819 -67.03744651 191.39331485 -71.98486328 185.6171875 C-75.79664602 181.33185976 -79.92662787 177.34696409 -84 173.3125 C-84.88880859 172.42820313 -85.77761719 171.54390625 -86.69335938 170.6328125 C-88.3389254 168.99590084 -89.98552431 167.36002632 -91.63354492 165.72558594 C-93.07568208 164.29395174 -94.48469336 162.82808882 -95.85668945 161.32910156 C-97.86207793 159.21320358 -97.86207793 159.21320358 -101.625 158.8125 C-105.12422855 159.05181877 -106.86520014 160.00789831 -109.3125 162.5 C-117.90112565 173.68653951 -122.23528322 188.12852983 -127.16235352 201.15307617 C-135.95546982 224.22927183 -135.95546982 224.22927183 -143.8125 231.5625 C-145.1325 231.5625 -146.4525 231.5625 -147.8125 231.5625 C-148.3691692 227.67123141 -148.92021263 223.77920716 -149.46655273 219.88647461 C-149.74246458 217.9284749 -150.02254124 215.97106351 -150.30273438 214.01367188 C-155.10430641 179.70425712 -156.56287965 140.80263401 -135.30859375 111.48828125 C-131.6068438 106.99978335 -127.23573551 103.31554831 -122.8125 99.5625 C-121.95060059 98.79474243 -121.95060059 98.79474243 -121.07128906 98.01147461 C-90.00319615 70.38562858 -90.00319615 70.38562858 -72.9375 70.4375 C-72.09445313 70.43492188 -71.25140625 70.43234375 -70.3828125 70.4296875 C-67.8125 70.5625 -67.8125 70.5625 -65.34765625 71.375 C-62.59010956 71.85222678 -62.59010956 71.85222678 -60.05078125 69.5703125 C-59.06137156 68.62394987 -58.08679803 67.66191178 -57.125 66.6875 C-56.06430613 65.66354012 -55.00310045 64.64011015 -53.94140625 63.6171875 C-53.41562988 63.10124023 -52.88985352 62.58529297 -52.34814453 62.05371094 C-50.14149337 59.91090883 -47.85610764 57.86150343 -45.5625 55.8125 C-44.76457031 55.09449219 -43.96664062 54.37648437 -43.14453125 53.63671875 C-40.230734 51.04504984 -37.27820461 48.50011177 -34.30859375 45.97265625 C-31.25891626 43.09815606 -31.48583395 39.95917251 -31.0625 35.9375 C-29.59439878 23.94410735 -26.77939108 9.2782396 -17.12109375 1.13671875 C-11.35600169 -2.61639488 -6.22745551 -2.11149663 0 0 Z M-5.8125 36.5625 C4.91106417 47.13865507 4.91106417 47.13865507 17.1875 55.5625 C15.36327825 44.26404216 15.36327825 44.26404216 9.40625 34.9375 C6.76989394 33.30370188 5.2040893 33.15963494 2.125 33.1875 C0.83916016 33.17589844 0.83916016 33.17589844 -0.47265625 33.1640625 C-3.21562296 33.63114531 -4.09349347 34.43205912 -5.8125 36.5625 Z M-9.8125 48.5625 C-14.46223227 62.51169682 -10.94323128 83.37503192 -10.25 98.125 C-10.19525513 100.03116089 -10.19525513 100.03116089 -10.1394043 101.97583008 C-9.99652088 108.12215776 -9.99652088 108.12215776 -7.26391602 113.36938477 C-5.49947645 114.59908946 -3.71933918 115.57516213 -1.8125 116.5625 C1.38924801 120.08794121 3.47289982 123.81049171 3.6875 128.625 C2.80886091 135.54428284 0.54744708 140.07510245 -4.8125 144.5625 C-12.02362213 148.87044309 -20.3154322 148.6964243 -28.42578125 147.0234375 C-33.12925475 145.41132417 -36.57548068 143.03653864 -38.8125 138.5625 C-39.4725 138.5625 -40.1325 138.5625 -40.8125 138.5625 C-40.92121967 136.01966766 -41.00012401 133.48154912 -41.0625 130.9375 C-41.09601563 130.22464844 -41.12953125 129.51179688 -41.1640625 128.77734375 C-41.26235717 123.42028447 -40.16499165 120.74651517 -36.8125 116.5625 C-36.20898788 118.77364355 -35.76491581 120.90955424 -35.453125 123.18359375 C-34.83737715 127.62313576 -34.31733028 130.82820141 -31.75 134.5625 C-26.47926793 138.15108354 -21.55322557 140.20071869 -15.125 139.0625 C-9.81976729 137.55069417 -6.27616118 134.98072282 -3.375 130.1875 C-2.61364893 126.63452833 -2.91747065 124.07868672 -3.8125 120.5625 C-5.72871575 118.142387 -5.72871575 118.142387 -7.8125 116.5625 C-8.1425 120.1925 -8.4725 123.8225 -8.8125 127.5625 C-16.39244762 132.07437358 -19.65514443 130.2880254 -29.8125 129.5625 C-30.1425 106.1325 -30.4725 82.7025 -30.8125 58.5625 C-31.4725 58.5625 -32.1325 58.5625 -32.8125 58.5625 C-32.8125 59.2225 -32.8125 59.8825 -32.8125 60.5625 C-33.40708008 60.8303833 -34.00166016 61.0982666 -34.61425781 61.37426758 C-36.83489757 62.57460673 -38.2368607 63.76952998 -39.984375 65.57421875 C-40.56203613 66.16348145 -41.13969727 66.75274414 -41.73486328 67.35986328 C-42.63954346 68.29548096 -42.63954346 68.29548096 -43.5625 69.25 C-47.82895319 73.59531959 -52.10522967 77.79283367 -56.7578125 81.7265625 C-60.1139486 84.72539134 -63.23138207 87.96184703 -66.39331055 91.1628418 C-69.09694829 93.88694549 -71.82008591 96.51607706 -74.75 99 C-76.10954519 100.18133843 -77.4628088 101.36991571 -78.8125 102.5625 C-79.33054199 103.01705566 -79.84858398 103.47161133 -80.38232422 103.93994141 C-89.92819231 112.06764901 -89.92819231 112.06764901 -93.75 123.5234375 C-93.770625 124.52632813 -93.79125 125.52921875 -93.8125 126.5625 C-93.92915004 127.93042523 -94.05479738 129.29760113 -94.1875 130.6640625 C-95.33871733 138.93363428 -95.33871733 138.93363428 -92.8125 146.5625 C-92.1525 146.5625 -91.4925 146.5625 -90.8125 146.5625 C-90.8125 147.2225 -90.8125 147.8825 -90.8125 148.5625 C-90.1525 148.5625 -89.4925 148.5625 -88.8125 148.5625 C-87.8125 150.5625 -86.8125 152.5625 -85.8125 154.5625 C-85.1525 154.5625 -84.4925 154.5625 -83.8125 154.5625 C-83.565 155.14 -83.3175 155.7175 -83.0625 156.3125 C-81.62950012 158.89189979 -80.02825324 160.62371592 -77.8125 162.5625 C-77.1525 162.5625 -76.4925 162.5625 -75.8125 162.5625 C-75.59980469 163.27792969 -75.38710937 163.99335938 -75.16796875 164.73046875 C-73.47596526 168.26563455 -71.04759963 170.37698679 -68.125 172.875 C-63.83170241 176.66116982 -59.95060884 180.52037971 -56.26953125 184.91796875 C-54.34054518 187.09518895 -52.10334416 188.78073232 -49.8125 190.5625 C-48.8125 191.89583333 -47.8125 193.22916667 -46.8125 194.5625 C-46.1525 194.5625 -45.4925 194.5625 -44.8125 194.5625 C-44.585625 195.09875 -44.35875 195.635 -44.125 196.1875 C-41.16332291 201.54672522 -37.07694 205.3740483 -32.36328125 209.16796875 C-30.8125 210.5625 -30.8125 210.5625 -28.8125 213.5625 C-27.8225 213.5625 -26.8325 213.5625 -25.8125 213.5625 C-25.4103125 214.7071875 -25.4103125 214.7071875 -25 215.875 C-23.86115495 218.45238618 -22.99833329 219.83204864 -20.8125 221.5625 C-20.1525 221.5625 -19.4925 221.5625 -18.8125 221.5625 C-18.565 222.18125 -18.3175 222.8 -18.0625 223.4375 C-16.58479238 225.94960296 -15.37294823 226.32357344 -12.8125 227.5625 C-12.4825 228.5525 -12.1525 229.5425 -11.8125 230.5625 C-10.4925 230.2325 -9.1725 229.9025 -7.8125 229.5625 C-7.91046875 230.27664063 -8.0084375 230.99078125 -8.109375 231.7265625 C-7.69046863 235.72822069 -5.89263374 237.14826414 -3.0625 239.9375 C-2.18078125 240.83210937 -1.2990625 241.72671875 -0.390625 242.6484375 C1.96734261 244.84303674 1.96734261 244.84303674 4.515625 244.3515625 C5.06734375 244.09117187 5.6190625 243.83078125 6.1875 243.5625 C6.1875 242.9025 6.1875 242.2425 6.1875 241.5625 C7.07828247 241.1595874 7.07828247 241.1595874 7.98706055 240.74853516 C10.19737445 239.55717768 11.63397183 238.36038102 13.39453125 236.5859375 C13.97775146 236.00142822 14.56097168 235.41691895 15.16186523 234.81469727 C16.07174194 233.88548462 16.07174194 233.88548462 17 232.9375 C17.62656494 232.30448975 18.25312988 231.67147949 18.89868164 231.01928711 C22.63428113 227.22141952 26.23938006 223.35088218 29.68359375 219.28515625 C31.27855998 217.45819493 32.95767842 215.76190713 34.6875 214.0625 C37.65465801 211.14119212 40.38808971 208.08258327 43.10546875 204.9296875 C45.74795414 201.92528573 48.46560347 198.99486973 51.1875 196.0625 C55.06425397 191.88523174 58.89242501 187.68205466 62.58984375 183.34375 C64.69966957 180.99147476 66.95305551 178.79694449 69.1875 176.5625 C73.62969094 171.91735308 77.99718535 167.20170199 82.37402344 162.49511719 C83.94220525 160.82390997 85.52937967 159.17629926 87.1328125 157.5390625 C92.9170904 151.5158578 92.9170904 151.5158578 94.1875 143.5625 C93.5275 143.5625 92.8675 143.5625 92.1875 143.5625 C91.8575 142.5725 91.5275 141.5825 91.1875 140.5625 C91.8475 139.9025 92.5075 139.2425 93.1875 138.5625 C91.8675 137.9025 90.5475 137.2425 89.1875 136.5625 C89.1875 135.9025 89.1875 135.2425 89.1875 134.5625 C88.5275 134.5625 87.8675 134.5625 87.1875 134.5625 C87.1875 133.9025 87.1875 133.2425 87.1875 132.5625 C85.70323767 130.98058182 85.70323767 130.98058182 83.8125 129.4375 C83.18601562 128.89867187 82.55953125 128.35984375 81.9140625 127.8046875 C80.27141572 126.36782853 80.27141572 126.36782853 78.1875 126.5625 C77.08536293 125.18482866 75.9847057 123.80595299 74.890625 122.421875 C72.03494047 119.30420106 68.64944438 116.85593684 65.296875 114.296875 C63.1875 112.5625 63.1875 112.5625 62.1875 110.5625 C61.5275 110.5625 60.8675 110.5625 60.1875 110.5625 C59.8575 109.5725 59.5275 108.5825 59.1875 107.5625 C57.69165084 106.26018672 57.69165084 106.26018672 55.875 105.125 C53.62898619 103.60779476 51.90715093 102.27414096 50 100.3125 C47.99842637 98.37994615 46.81344061 98.19634773 44.1875 97.5625 C43.8575 96.5725 43.5275 95.5825 43.1875 94.5625 C42.5275 94.5625 41.8675 94.5625 41.1875 94.5625 C41.1875 93.9025 41.1875 93.2425 41.1875 92.5625 C40.5275 92.5625 39.8675 92.5625 39.1875 92.5625 C39.1875 91.9025 39.1875 91.2425 39.1875 90.5625 C37.56657408 88.96190707 37.56657408 88.96190707 35.5 87.3125 C32.83108281 85.06722046 30.543289 82.90411338 28.4375 80.125 C27.695 79.279375 26.9525 78.43375 26.1875 77.5625 C24.8675 77.5625 23.5475 77.5625 22.1875 77.5625 C21.88972656 76.74458984 21.88972656 76.74458984 21.5859375 75.91015625 C19.60504491 72.58469132 16.76719041 70.42478596 13.8125 68 C7.93406172 63.08629114 2.27844736 58.00462833 -3.2890625 52.7421875 C-5.44370338 50.88105807 -7.20787085 49.65081922 -9.8125 48.5625 Z " fill="#7695B7" transform="translate(180.8125,43.4375)"/>
<path d="M0 0 C0.99 0.495 0.99 0.495 2 1 C0.6875 2.5 0.6875 2.5 -1 4 C-1.99 4 -2.98 4 -4 4 C-4 4.99 -4 5.98 -4 7 C-4.99 7.66 -5.98 8.32 -7 9 C-7.41121094 9.73605469 -7.82242188 10.47210938 -8.24609375 11.23046875 C-10.62248167 14.98293877 -13.67846023 17.47927036 -17.0625 20.3125 C-17.69994141 20.86228516 -18.33738281 21.41207031 -18.99414062 21.97851562 C-23.73499612 26 -23.73499612 26 -26 26 C-26.495 27.485 -26.495 27.485 -27 29 C-27.99 29.495 -27.99 29.495 -29 30 C-29.73965635 32.61139487 -29.73965635 32.61139487 -30.25390625 35.79296875 C-30.57584961 37.57477539 -30.57584961 37.57477539 -30.90429688 39.39257812 C-31.23010742 41.27106445 -31.23010742 41.27106445 -31.5625 43.1875 C-31.78357422 44.42048828 -32.00464844 45.65347656 -32.23242188 46.92382812 C-32.83208581 50.28085915 -33.42190046 53.63919286 -34 57 C-34.27239502 58.49744751 -34.27239502 58.49744751 -34.55029297 60.02514648 C-35.00830215 63.05491948 -35.20594542 65.99334447 -35.31640625 69.0546875 C-35.37924805 70.71757812 -35.37924805 70.71757812 -35.44335938 72.4140625 C-35.48267578 73.55617188 -35.52199219 74.69828125 -35.5625 75.875 C-35.62727539 77.62296875 -35.62727539 77.62296875 -35.69335938 79.40625 C-35.79901629 82.27072625 -35.90111799 85.13528321 -36 88 C-38.97 88 -41.94 88 -45 88 C-45.66 89.32 -46.32 90.64 -47 92 C-47.85847708 93.05532533 -48.73516706 94.09597532 -49.625 95.125 C-56.94618501 104.82777532 -60.77778567 117.36951695 -65.0793457 128.60864258 C-75.71196351 156.3294614 -75.71196351 156.3294614 -83 162 C-84.32 162 -85.64 162 -87 162 C-87.5566692 158.10873141 -88.10771263 154.21670716 -88.65405273 150.32397461 C-88.92996458 148.3659749 -89.21004124 146.40856351 -89.49023438 144.45117188 C-94.29180641 110.14175712 -95.75037965 71.24013401 -74.49609375 41.92578125 C-70.7943438 37.43728335 -66.42323551 33.75304831 -62 30 C-61.42540039 29.48816162 -60.85080078 28.97632324 -60.25878906 28.44897461 C-45.72611281 15.52647314 -27.36176983 0.08924991 -7 1 C-6.01 1.20625 -5.02 1.4125 -4 1.625 C-3.01 1.810625 -3.01 1.810625 -2 2 C-1.34 1.34 -0.68 0.68 0 0 Z " fill="#E36636" transform="translate(120,113)"/>
<path d="M0 0 C13.60729471 5.94673881 20.80797006 18.54194329 26.375 31.6875 C31.28012392 44.24527454 34.16092703 57.52944015 36.609375 70.75390625 C37.04890813 73.50006673 37.04890813 73.50006673 38.1875 75.5625 C36.25 75.25 36.25 75.25 34.1875 74.5625 C33.8575 73.5725 33.5275 72.5825 33.1875 71.5625 C32.5275 71.2325 31.8675 70.9025 31.1875 70.5625 C31.1875 69.9025 31.1875 69.2425 31.1875 68.5625 C29.2075 68.0675 29.2075 68.0675 27.1875 67.5625 C27.1875 66.5725 27.1875 65.5825 27.1875 64.5625 C25.7025 64.0675 25.7025 64.0675 24.1875 63.5625 C22.85416667 62.22916667 21.52083333 60.89583333 20.1875 59.5625 C16.52055388 57.03685157 16.52055388 57.03685157 12.1875 56.5625 C11.8575 54.9125 11.5275 53.2625 11.1875 51.5625 C12.8375 52.5525 14.4875 53.5425 16.1875 54.5625 C14.15292293 43.11727961 14.15292293 43.11727961 7.1875 34.5625 C1.95961838 33.95996449 -3.09155982 34.04466524 -7.8125 36.5625 C-8.03495393 38.16476955 -8.23996669 39.76946767 -8.4375 41.375 C-8.55351562 42.26832031 -8.66953125 43.16164062 -8.7890625 44.08203125 C-9.04750743 46.81940391 -9.04750743 46.81940391 -6.8125 49.5625 C-7.4725 49.5625 -8.1325 49.5625 -8.8125 49.5625 C-14.44258075 60.8226615 -9.85017236 85.36211895 -9.25 98.125 C-9.21350342 99.39569336 -9.17700684 100.66638672 -9.1394043 101.97558594 C-8.99655201 108.12204238 -8.99655201 108.12204238 -6.26391602 113.36938477 C-4.49947645 114.59908946 -2.71933918 115.57516213 -0.8125 116.5625 C2.38924801 120.08794121 4.47289982 123.81049171 4.6875 128.625 C3.59020392 137.26620662 -0.09949698 141.57595409 -6.6875 146.875 C-12.97706648 150.27551287 -21.59396187 149.39468506 -28.38671875 148.0546875 C-32.85340771 146.57429916 -35.85472276 144.16729101 -38.8125 140.5625 C-38.8125 139.9025 -38.8125 139.2425 -38.8125 138.5625 C-39.4725 138.5625 -40.1325 138.5625 -40.8125 138.5625 C-43.1462088 133.89508239 -42.34185929 127.62520215 -41.8125 122.5625 C-40.46359309 119.56754935 -39.10596637 117.97063969 -36.8125 115.5625 C-36.1525 115.8925 -35.4925 116.2225 -34.8125 116.5625 C-35.3075 117.5525 -35.3075 117.5525 -35.8125 118.5625 C-35.42707257 120.7226194 -34.95568647 122.86782906 -34.4375 125 C-34.02371094 126.73056641 -34.02371094 126.73056641 -33.6015625 128.49609375 C-32.80307051 132.7386909 -32.80307051 132.7386909 -30.04296875 135.66796875 C-23.36443653 138.34639936 -17.52504509 139.35609157 -10.7265625 136.60546875 C-7.81833215 135.02077997 -6.39615247 133.46586287 -4.8125 130.5625 C-3.63939911 126.26113007 -3.51795303 124.26685145 -5.25 120.125 C-5.765625 119.279375 -6.28125 118.43375 -6.8125 117.5625 C-6.82667969 118.24957031 -6.84085938 118.93664062 -6.85546875 119.64453125 C-7.24353041 126.97575011 -7.24353041 126.97575011 -9.8125 129.625 C-17.01282587 131.87510184 -22.62393566 131.78441989 -29.8125 129.5625 C-30.96268913 116.29108691 -31.14312048 102.99531661 -31.37011719 89.68212891 C-31.43758793 85.80745022 -31.51538879 81.93306569 -31.59375 78.05859375 C-31.63864742 75.56511537 -31.68293916 73.071626 -31.7265625 70.578125 C-31.75046051 69.43514954 -31.77435852 68.29217407 -31.79898071 67.11456299 C-31.90588618 60.19436452 -31.59519014 53.4398767 -30.8125 46.5625 C-32.1325 47.5525 -33.4525 48.5425 -34.8125 49.5625 C-35.4725 49.2325 -36.1325 48.9025 -36.8125 48.5625 C-35.636875 47.5415625 -35.636875 47.5415625 -34.4375 46.5 C-30.80720915 42.17001622 -30.96770914 37.14761561 -30.390625 31.71875 C-29.08369961 21.02019799 -25.60423409 8.28763382 -17.12109375 1.13671875 C-11.35600169 -2.61639488 -6.22745551 -2.11149663 0 0 Z " fill="#9C9E9E" transform="translate(180.8125,43.4375)"/>
<path d="M0 0 C0.66 0 1.32 0 2 0 C2.13609913 1.72694675 2.23249228 3.45704722 2.3125 5.1875 C2.37050781 6.15042969 2.42851562 7.11335938 2.48828125 8.10546875 C1.8084306 12.13562342 0.04536342 13.30695921 -3 16 C-4.17049442 17.16677158 -5.3327311 18.34186357 -6.48828125 19.5234375 C-18.15687164 31.28912707 -18.15687164 31.28912707 -23.98046875 36.19921875 C-27.32723737 39.18347471 -30.43088231 42.41149852 -33.58105469 45.60058594 C-36.85729292 48.9016285 -40.23230597 51.99242032 -43.78125 55 C-47.57407683 58.41888616 -51.12500979 62.08678327 -54.69702148 65.73413086 C-56.1141827 67.173195 -57.55497084 68.5889216 -59 70 C-59.33 70 -59.66 70 -60 70 C-60.51214953 55.91588785 -60.51214953 55.91588785 -56.25 50.96875 C-53.90899089 48.8618418 -51.49559887 46.92139028 -49 45 C-40.48071424 38.42240761 -40.48071424 38.42240761 -34 30 C-33.34 30 -32.68 30 -32 30 C-32 29.01 -32 28.02 -32 27 C-31.319375 26.608125 -30.63875 26.21625 -29.9375 25.8125 C-27.22635342 24.13966488 -25.98164361 22.95430924 -24 20.5625 C-20.70811162 16.6701133 -17.1577913 13.1628967 -13.4375 9.6875 C-12.89544922 9.17195557 -12.35339844 8.65641113 -11.79492188 8.12524414 C-8.42662155 5.01364913 -5.21766211 2.91374096 -1 1 C-0.67 0.67 -0.34 0.34 0 0 Z " fill="#6F8FB2" transform="translate(148,90)"/>
<path d="M0 0 C0.66 0 1.32 0 2 0 C1.93941406 0.53625 1.87882812 1.0725 1.81640625 1.625 C1.22036638 7.20026528 0.76150429 12.78183085 0.375 18.375 C0.32287354 19.06464844 0.27074707 19.75429687 0.21704102 20.46484375 C-0.00451936 23.83817271 -0.10731737 26.77721065 1 30 C1.66 30 2.32 30 3 30 C3 30.66 3 31.32 3 32 C3.66 32 4.32 32 5 32 C8 35.46153846 8 35.46153846 8 38 C8.66 38 9.32 38 10 38 C11.3671875 39.390625 11.3671875 39.390625 12.875 41.25 C14.57342085 43.30294559 16.23850937 45.23850937 18.125 47.125 C20 49 20 49 21.75 51.3125 C23.71493557 53.65950638 25.60667708 55.42025733 27.9375 57.375 C31.69814553 60.57330601 34.30601786 63.87483984 37 68 C33.25 71.875 33.25 71.875 31 73 C31.99 74.485 31.99 74.485 33 76 C33 76.66 33 77.32 33 78 C34.29233607 79.37310707 35.62437146 80.71034824 37 82 C36.67 82.66 36.34 83.32 36 84 C34.64242826 82.6701338 33.28916504 81.33586929 31.9375 80 C31.18339844 79.2575 30.42929688 78.515 29.65234375 77.75 C27.6280351 75.65115863 25.72372236 73.53802841 23.828125 71.328125 C19.40020403 66.22520512 14.6105163 61.5021866 9.8125 56.75 C8.92369141 55.86570313 8.03488281 54.98140625 7.11914062 54.0703125 C5.4735746 52.43340084 3.82697569 50.79752632 2.17895508 49.16308594 C0.71810263 47.71287275 -0.72445855 46.24401463 -2.14868164 44.7578125 C-4.285963 42.72848034 -5.35505893 42.44299607 -8.25 42.25 C-9.4875 42.1675 -10.725 42.085 -12 42 C-12 41.67 -12 41.34 -12 41 C-9.03 41 -6.06 41 -3 41 C-3.01571045 40.32646484 -3.0314209 39.65292969 -3.04760742 38.95898438 C-3.31740368 25.59894669 -3.2588382 13.01595495 0 0 Z " fill="#7E9CBE" transform="translate(87,160)"/>
<path d="M0 0 C6.12382976 3.32139919 10.35373403 6.38433507 13 13 C14.09571945 18.52074032 12.66225265 23.13450377 10 28 C5.59187344 33.26526228 1.3629759 36.66257767 -5.50390625 37.3515625 C-14.32954242 37.5443768 -21.09348293 37.33681667 -28 31.4375 C-30 29 -30 29 -30 27 C-30.66 27 -31.32 27 -32 27 C-34.3337088 22.33258239 -33.52935929 16.06270215 -33 11 C-31.65109309 8.00504935 -30.29346637 6.40813969 -28 4 C-27.34 4.33 -26.68 4.66 -26 5 C-26.33 5.66 -26.66 6.32 -27 7 C-26.61457257 9.1601194 -26.14318647 11.30532906 -25.625 13.4375 C-25.34914062 14.59121094 -25.07328125 15.74492187 -24.7890625 16.93359375 C-23.99057051 21.1761909 -23.99057051 21.1761909 -21.23046875 24.10546875 C-14.55193653 26.78389936 -8.71254509 27.79359157 -1.9140625 25.04296875 C0.99416785 23.45827997 2.41634753 21.90336287 4 19 C5.17310089 14.69863007 5.29454697 12.70435145 3.5625 8.5625 C3.046875 7.716875 2.53125 6.87125 2 6 C1.67 9.3 1.34 12.6 1 16 C0.67 16 0.34 16 0 16 C0 10.72 0 5.44 0 0 Z " fill="#B5B9BF" transform="translate(172,155)"/>
<path d="M0 0 C0.99 0.495 0.99 0.495 2 1 C0.24561635 3.18857893 -0.69826205 3.93794714 -3.48828125 4.51171875 C-4.42027344 4.56972656 -5.35226563 4.62773438 -6.3125 4.6875 C-7.28445312 4.75195312 -8.25640625 4.81640625 -9.2578125 4.8828125 C-12.17625314 5.00753219 -15.07942716 5.0789344 -18 5 C-18.33 5.99 -18.66 6.98 -19 8 C-19.66 7.34 -20.32 6.68 -21 6 C-21.680625 6.86625 -21.680625 6.86625 -22.375 7.75 C-25.57316014 10.49128012 -28.73331278 11.64129578 -32.66015625 13.0703125 C-35.20930547 13.98912315 -35.20930547 13.98912315 -38 16 C-38.268125 16.66 -38.53625 17.32 -38.8125 18 C-40 20 -40 20 -42.875 20.9375 C-46.67486246 22.22945324 -47.62034395 23.85271296 -50 27 C-52.375 28.5625 -52.375 28.5625 -55 30 C-58.03558811 31.92047411 -60.68037858 33.67124654 -63.1875 36.25 C-65 38 -65 38 -68 38 C-68.33 39.32 -68.66 40.64 -69 42 C-69.99 42 -70.98 42 -72 42 C-72.061875 42.598125 -72.12375 43.19625 -72.1875 43.8125 C-73.3236757 46.87143458 -75.17330142 47.55041099 -78 49 C-75.49341137 40.72825752 -68.34871478 35.3867883 -62 30 C-61.42540039 29.48816162 -60.85080078 28.97632324 -60.25878906 28.44897461 C-45.72611281 15.52647314 -27.36176983 0.08924991 -7 1 C-6.01 1.20625 -5.02 1.4125 -4 1.625 C-3.01 1.810625 -3.01 1.810625 -2 2 C-1.34 1.34 -0.68 0.68 0 0 Z " fill="#F1B69E" transform="translate(120,113)"/>
<path d="M0 0 C2.31 0 4.62 0 7 0 C7 0.99 7 1.98 7 3 C6.01 3.66 5.02 4.32 4 5 C3.38318359 6.10408203 3.38318359 6.10408203 2.75390625 7.23046875 C0.37751833 10.98293877 -2.67846023 13.47927036 -6.0625 16.3125 C-6.69994141 16.86228516 -7.33738281 17.41207031 -7.99414062 17.97851562 C-12.73499612 22 -12.73499612 22 -15 22 C-15.33 22.99 -15.66 23.98 -16 25 C-16.66 25.33 -17.32 25.66 -18 26 C-18.73965635 28.61139487 -18.73965635 28.61139487 -19.25390625 31.79296875 C-19.46853516 32.98083984 -19.68316406 34.16871094 -19.90429688 35.39257812 C-20.12150391 36.64490234 -20.33871094 37.89722656 -20.5625 39.1875 C-20.78357422 40.42048828 -21.00464844 41.65347656 -21.23242188 42.92382812 C-21.83208581 46.28085915 -22.42190046 49.63919286 -23 53 C-23.18159668 53.99829834 -23.36319336 54.99659668 -23.55029297 56.02514648 C-24.00830215 59.05491948 -24.20594542 61.99334447 -24.31640625 65.0546875 C-24.35830078 66.16328125 -24.40019531 67.271875 -24.44335938 68.4140625 C-24.48267578 69.55617188 -24.52199219 70.69828125 -24.5625 71.875 C-24.60568359 73.0403125 -24.64886719 74.205625 -24.69335938 75.40625 C-24.79901629 78.27072625 -24.90111799 81.13528321 -25 84 C-27.31 84 -29.62 84 -32 84 C-32 83.67 -32 83.34 -32 83 C-30.35 83 -28.7 83 -27 83 C-27.01160156 82.06800781 -27.02320312 81.13601562 -27.03515625 80.17578125 C-27.18811881 58.56435644 -27.18811881 58.56435644 -25 52 C-24.69459331 48.90775724 -24.49167689 45.81488281 -24.28125 42.71484375 C-24 40 -24 40 -23 38 C-23.061875 36.5459375 -23.061875 36.5459375 -23.125 35.0625 C-23.17997984 29.83941536 -21.98894066 24.81574216 -20 20 C-17.4682918 17.83878568 -16.29479284 17 -13 17 C-12.67 16.34 -12.34 15.68 -12 15 C-10.35636866 14.27840576 -8.68949614 13.60648579 -7 13 C-7 12.34 -7 11.68 -7 11 C-6.34 11 -5.68 11 -5 11 C-5 9.68 -5 8.36 -5 7 C-4.01 6.34 -3.02 5.68 -2 5 C-0.79549696 2.44816596 -0.79549696 2.44816596 0 0 Z " fill="#BE7A6B" transform="translate(109,117)"/>
<path d="M0 0 C0.66 0 1.32 0 2 0 C1.93941406 0.53625 1.87882812 1.0725 1.81640625 1.625 C1.22036638 7.20026528 0.76150429 12.78183085 0.375 18.375 C0.32287354 19.06464844 0.27074707 19.75429687 0.21704102 20.46484375 C-0.00451936 23.83817271 -0.10731737 26.77721065 1 30 C1.66 30 2.32 30 3 30 C3 30.66 3 31.32 3 32 C3.66 32 4.32 32 5 32 C6.625 34 6.625 34 8 36 C7.67 36.66 7.34 37.32 7 38 C6.505 37.505 6.505 37.505 6 37 C4.68 38.98 3.36 40.96 2 43 C1.01 42.67 0.02 42.34 -1 42 C-1 42.66 -1 43.32 -1 44 C-4.63 43.34 -8.26 42.68 -12 42 C-12 41.67 -12 41.34 -12 41 C-9.03 41 -6.06 41 -3 41 C-3.01571045 40.32646484 -3.0314209 39.65292969 -3.04760742 38.95898438 C-3.31740368 25.59894669 -3.2588382 13.01595495 0 0 Z " fill="#708EB0" transform="translate(87,160)"/>
<path d="M0 0 C0.99 0.495 0.99 0.495 2 1 C1.01 2.485 1.01 2.485 0 4 C0 2.68 0 1.36 0 0 Z M0 4 C-0.556875 4.226875 -1.11375 4.45375 -1.6875 4.6875 C-4.17347712 5.96295 -4.17347712 5.96295 -6.375 8.375 C-9.07662422 11.07662422 -11.77750306 12.96127745 -15 15 C-18.02768492 16.93771835 -20.67949478 18.67033749 -23.1875 21.25 C-25 23 -25 23 -28 23 C-28.33 24.32 -28.66 25.64 -29 27 C-29.99 27 -30.98 27 -32 27 C-32.061875 27.598125 -32.12375 28.19625 -32.1875 28.8125 C-33.3236757 31.87143458 -35.17330142 32.55041099 -38 34 C-35.49531908 25.73455296 -28.35163628 20.37629139 -22 15 C-20.58167895 13.75187747 -19.16497681 12.50191257 -17.75 11.25 C-7.21897074 1.93743693 -7.21897074 1.93743693 0 4 Z " fill="#EE9675" transform="translate(80,128)"/>
<path d="M0 0 C2.31 0 4.62 0 7 0 C7 3 7 3 5.57421875 4.60546875 C4.95160156 5.12753906 4.32898438 5.64960937 3.6875 6.1875 C3.07261719 6.71730469 2.45773438 7.24710937 1.82421875 7.79296875 C0 9 0 9 -3 9 C-3.2371875 9.57234375 -3.474375 10.1446875 -3.71875 10.734375 C-5.27593238 13.4879292 -7.12492797 15.16795634 -9.5 17.25 C-10.2940625 17.95640625 -11.088125 18.6628125 -11.90625 19.390625 C-14 21 -14 21 -16 21 C-16.33 21.99 -16.66 22.98 -17 24 C-17.99 24.33 -18.98 24.66 -20 25 C-20.33 24.01 -20.66 23.02 -21 22 C-18.3991542 19.12049214 -16.78271103 17.78262987 -13 17 C-12.67 16.34 -12.34 15.68 -12 15 C-10.35636866 14.27840576 -8.68949614 13.60648579 -7 13 C-7 12.34 -7 11.68 -7 11 C-6.34 11 -5.68 11 -5 11 C-5 9.68 -5 8.36 -5 7 C-4.01 6.34 -3.02 5.68 -2 5 C-0.79549696 2.44816596 -0.79549696 2.44816596 0 0 Z " fill="#EC8763" transform="translate(109,117)"/>
<path d="M0 0 C0.66 0 1.32 0 2 0 C2.78545181 9.96651077 2.78545181 9.96651077 -0.375 14.125 C-3 16 -3 16 -5 17 C-5.66 16.67 -6.32 16.34 -7 16 C-6 13 -6 13 -4 11 C-4.32041397 8.39719432 -4.32041397 8.39719432 -5 6 C-7.81939117 8.20979308 -10.53058944 10.40062046 -13 13 C-13.66 12.67 -14.32 12.34 -15 12 C-13.61392377 10.53238987 -12.21568805 9.07625811 -10.8125 7.625 C-10.03519531 6.81289062 -9.25789062 6.00078125 -8.45703125 5.1640625 C-6.00210227 3.0018516 -4.06313703 2.04749764 -1 1 C-0.67 0.67 -0.34 0.34 0 0 Z " fill="#849FBD" transform="translate(148,90)"/>
<path d="M0 0 C1.32 0.66 2.64 1.32 4 2 C4 2.99 4 3.98 4 5 C4.66 5.33 5.32 5.66 6 6 C4.75 8.9375 4.75 8.9375 3 12 C0.8125 12.875 0.8125 12.875 -1 13 C-4.23520375 9.15819555 -5 7.92354151 -5 3 C-4.360625 2.87625 -3.72125 2.7525 -3.0625 2.625 C-2.0415625 2.315625 -2.0415625 2.315625 -1 2 C-0.67 1.34 -0.34 0.68 0 0 Z " fill="#6E8FB4" transform="translate(123,228)"/>
<path d="M0 0 C0.66 0.33 1.32 0.66 2 1 C1.43410156 1.55429688 0.86820313 2.10859375 0.28515625 2.6796875 C-0.44832031 3.40414062 -1.18179688 4.12859375 -1.9375 4.875 C-2.66839844 5.59429687 -3.39929688 6.31359375 -4.15234375 7.0546875 C-6.05667999 8.87027192 -6.05667999 8.87027192 -7 11 C-6.34 11 -5.68 11 -5 11 C-4.01 12.485 -4.01 12.485 -3 14 C-0.52733235 13.65555119 -0.52733235 13.65555119 2 13 C2.33 12.34 2.66 11.68 3 11 C2.43867066 14.5371438 1.30442253 15.99261679 -1.4375 18.25 C-2.05496094 18.77078125 -2.67242187 19.2915625 -3.30859375 19.828125 C-5 21 -5 21 -7 21 C-7 20.34 -7 19.68 -7 19 C-7.66 19 -8.32 19 -9 19 C-9.33 18.01 -9.66 17.02 -10 16 C-9.34 15.34 -8.68 14.68 -8 14 C-8.21527344 13.23300781 -8.43054688 12.46601562 -8.65234375 11.67578125 C-9 9 -9 9 -7.12890625 6.54296875 C-6.28199219 5.76566406 -5.43507813 4.98835938 -4.5625 4.1875 C-3.29599609 3.00220703 -3.29599609 3.00220703 -2.00390625 1.79296875 C-1.34261719 1.20128906 -0.68132812 0.60960938 0 0 Z " fill="#85A0BD" transform="translate(131,103)"/>
<path d="M0 0 C9.05138568 5.19341801 9.05138568 5.19341801 11 10 C10.67 10.66 10.34 11.32 10 12 C9.34 12 8.68 12 8 12 C7.34 14.97 6.68 17.94 6 21 C5.34 21 4.68 21 4 21 C4.10699219 20.41992188 4.21398437 19.83984375 4.32421875 19.2421875 C5.15081863 13.85595601 5.05662431 10.76833393 2 6 C1.67 9.3 1.34 12.6 1 16 C0.67 16 0.34 16 0 16 C0 10.72 0 5.44 0 0 Z " fill="#C6C8C9" transform="translate(172,155)"/>
<path d="M0 0 C4.67692308 1.47692308 4.67692308 1.47692308 6.3125 4.125 C6.539375 4.74375 6.76625 5.3625 7 6 C6.01 6.33 5.02 6.66 4 7 C3.34 6.67 2.68 6.34 2 6 C2.165 7.258125 2.33 8.51625 2.5 9.8125 C2.82158241 12.26456585 3 14.51650694 3 17 C1.82737096 15.88121617 0.66204862 14.75476949 -0.5 13.625 C-1.47453125 12.68527344 -1.47453125 12.68527344 -2.46875 11.7265625 C-4 10 -4 10 -4 8 C-4.66 8 -5.32 8 -6 8 C-6 7.34 -6 6.68 -6 6 C-5.01 6 -4.02 6 -3 6 C-2.01 4.02 -1.02 2.04 0 0 Z " fill="#6D93B9" transform="translate(92,196)"/>
<path d="M0 0 C0.66 0.33 1.32 0.66 2 1 C0.24561635 3.18857893 -0.69826205 3.93794714 -3.48828125 4.51171875 C-4.42027344 4.56972656 -5.35226563 4.62773438 -6.3125 4.6875 C-7.28445312 4.75195312 -8.25640625 4.81640625 -9.2578125 4.8828125 C-12.17625314 5.00753219 -15.07942716 5.0789344 -18 5 C-18.33 5.99 -18.66 6.98 -19 8 C-19.33 7.34 -19.66 6.68 -20 6 C-22.31 6 -24.62 6 -27 6 C-20.92850111 0.86257786 -14.63719215 0.52825357 -7 1 C-5.515 1.309375 -5.515 1.309375 -4 1.625 C-3.34 1.74875 -2.68 1.8725 -2 2 C-1.34 1.34 -0.68 0.68 0 0 Z " fill="#F0B9A4" transform="translate(120,113)"/>
<path d="M0 0 C0.33 0 0.66 0 1 0 C0.67 6.6 0.34 13.2 0 20 C-9 23 -9 23 -12 23 C-11.690625 22.2575 -11.38125 21.515 -11.0625 20.75 C-10.1905075 18.49307824 -9.52332993 16.3549847 -9 14 C-8.01 14.99 -7.02 15.98 -6 17 C-3.84188612 16.05270463 -3.84188612 16.05270463 -2 14 C-1.93527209 12.02579869 -1.88282158 10.04645088 -1.9921875 8.07421875 C-2.00326242 5.13382711 -1.08206924 2.7051731 0 0 Z " fill="#D6501D" transform="translate(82,180)"/>
<path d="M0 0 C4.39831531 3.68022301 8.53758412 7.454292 12.51953125 11.58203125 C13.96354985 13.10498419 13.96354985 13.10498419 16 14 C16 13.34 16 12.68 16 12 C16.99 12 17.98 12 19 12 C19.33 10.35 19.66 8.7 20 7 C20.99 7.33 21.98 7.66 23 8 C25.19038423 6.62831762 25.19038423 6.62831762 27 5 C25.52278578 8.45201639 23.56205999 10.64961936 20.875 13.25 C20.15054688 13.95640625 19.42609375 14.6628125 18.6796875 15.390625 C18.12539062 15.92171875 17.57109375 16.4528125 17 17 C14.10147635 15.68692628 12.01722783 14.27315362 9.765625 12.03125 C8.90517578 11.17466797 8.90517578 11.17466797 8.02734375 10.30078125 C7.44082031 9.70652344 6.85429687 9.11226563 6.25 8.5 C5.64800781 7.90574219 5.04601562 7.31148438 4.42578125 6.69921875 C3.85730469 6.12816406 3.28882813 5.55710937 2.703125 4.96875 C2.18395508 4.44732422 1.66478516 3.92589844 1.12988281 3.38867188 C0 2 0 2 0 0 Z " fill="#BCCCDB" transform="translate(169,290)"/>
<path d="M0 0 C0.33 0.66 0.66 1.32 1 2 C0.566875 3.051875 0.566875 3.051875 0.125 4.125 C-1.30624915 7.78263671 -1.60300314 11.09619753 -2 15 C-2.99 14.67 -3.98 14.34 -5 14 C-6.32 19.28 -7.64 24.56 -9 30 C-9.33 30 -9.66 30 -10 30 C-9.75586717 18.7255018 -5.83861671 9.51478278 0 0 Z " fill="#EBA388" transform="translate(41,162)"/>
<path d="M0 0 C0.66 0 1.32 0 2 0 C1.93941406 0.53625 1.87882812 1.0725 1.81640625 1.625 C1.22036638 7.20026528 0.76150429 12.78183085 0.375 18.375 C0.32287354 19.06464844 0.27074707 19.75429687 0.21704102 20.46484375 C-0.00451936 23.83817271 -0.10731737 26.77721065 1 30 C-0.97265625 28.79296875 -0.97265625 28.79296875 -3 27 C-4.97111212 18.51024939 -1.76527674 8.37455692 0 0 Z " fill="#A8B9D3" transform="translate(87,160)"/>
<path d="M0 0 C0.99 0 1.98 0 3 0 C3 0.66 3 1.32 3 2 C2.34 2 1.68 2 1 2 C1 2.99 1 3.98 1 5 C0.34 5 -0.32 5 -1 5 C-1 5.66 -1 6.32 -1 7 C-1.8971875 7.86625 -1.8971875 7.86625 -2.8125 8.75 C-5.27792155 11.28586216 -6.54430427 13.7974694 -8 17 C-8.99 16.67 -9.98 16.34 -11 16 C-10.69973137 12.3967764 -10.31924232 11.27135597 -7.5 8.875 C-6.675 8.25625 -5.85 7.6375 -5 7 C-4.67 6.01 -4.34 5.02 -4 4 C-3.01 4 -2.02 4 -1 4 C-0.67 2.68 -0.34 1.36 0 0 Z " fill="#EA825A" transform="translate(52,151)"/>
<path d="M0 0 C0.33 0.66 0.66 1.32 1 2 C-0.25 4.625 -0.25 4.625 -2 7 C-2.99 7 -3.98 7 -5 7 C-5.33 8.32 -5.66 9.64 -6 11 C-6.99 11 -7.98 11 -9 11 C-9.061875 11.598125 -9.12375 12.19625 -9.1875 12.8125 C-10.3236757 15.87143458 -12.17330142 16.55041099 -15 18 C-12.634261 10.19306131 -6.14113167 4.96014481 0 0 Z " fill="#EAAD94" transform="translate(57,144)"/>
<path d="M0 0 C2 2 2 2 2.1953125 5.0390625 C2.17210937 6.22242188 2.14890625 7.40578125 2.125 8.625 C2.10695312 9.81351563 2.08890625 11.00203125 2.0703125 12.2265625 C2.04710937 13.14179688 2.02390625 14.05703125 2 15 C1.67 15 1.34 15 1 15 C0.67 12.03 0.34 9.06 0 6 C-0.99 7.32 -1.98 8.64 -3 10 C-5.18965517 5.62068966 -5.18965517 5.62068966 -4.3125 2.75 C-3 1 -3 1 0 0 Z " fill="#CACDD0" transform="translate(149,156)"/>
<path d="M0 0 C2.31 0 4.62 0 7 0 C7 3 7 3 5.46875 4.60546875 C4.8190625 5.12753906 4.169375 5.64960937 3.5 6.1875 C2.8503125 6.71730469 2.200625 7.24710937 1.53125 7.79296875 C1.0259375 8.19128906 0.520625 8.58960937 0 9 C-0.97591583 5.61682513 -0.85856655 3.4342662 0 0 Z " fill="#E9906F" transform="translate(109,117)"/>
<path d="M0 0 C0.66 0.33 1.32 0.66 2 1 C-0.31 3.31 -2.62 5.62 -5 8 C-4.67 8.99 -4.34 9.98 -4 11 C-5.65 12.32 -7.3 13.64 -9 15 C-9.99 14.34 -10.98 13.68 -12 13 C-8.13635705 8.51282966 -4.25209792 4.12324647 0 0 Z " fill="#E1EFF8" transform="translate(141,109)"/>
<path d="M0 0 C0 0.66 0 1.32 0 2 C0.99 2.33 1.98 2.66 3 3 C3 4.32 3 5.64 3 7 C2.34 7 1.68 7 1 7 C0.34 8.32 -0.32 9.64 -1 11 C-1.66 10.01 -2.32 9.02 -3 8 C-2.34 8 -1.68 8 -1 8 C-1 7.01 -1 6.02 -1 5 C-1.66 5 -2.32 5 -3 5 C-3 4.34 -3 3.68 -3 3 C-3.66 2.67 -4.32 2.34 -5 2 C-2 0 -2 0 0 0 Z " fill="#93AFCD" transform="translate(276,182)"/>
<path d="M0 0 C0.99 0.33 1.98 0.66 3 1 C3.99 1 4.98 1 6 1 C5.52949219 1.50789062 5.05898437 2.01578125 4.57421875 2.5390625 C0.98265595 6.50985864 -1.9022425 10.06409999 -4 15 C-4.33 15 -4.66 15 -5 15 C-5 13.02 -5 11.04 -5 9 C-4.01 8.67 -3.02 8.34 -2 8 C-2 6.68 -2 5.36 -2 4 C-1.34 4 -0.68 4 0 4 C0 2.68 0 1.36 0 0 Z " fill="#DF8565" transform="translate(69,202)"/>
<path d="M0 0 C1.65 0.99 3.3 1.98 5 3 C4.01 3.33 3.02 3.66 2 4 C2.33 6.64 2.66 9.28 3 12 C2.01 12 1.02 12 0 12 C-1.49498913 9.01002175 -1.11577446 6.29957225 -1 3 C-0.67 2.01 -0.34 1.02 0 0 Z " fill="#BED2E7" transform="translate(171,92)"/>
<path d="M0 0 C2.76591336 2.76591336 2.4737411 5.18462299 3 9 C3.95584438 11.33588323 3.95584438 11.33588323 5 13 C3.02 13.99 3.02 13.99 1 15 C-0.03590199 9.94997778 -0.10251672 5.12583611 0 0 Z " fill="#CD572C" transform="translate(33,259)"/>
<path d="M0 0 C0.33 0.99 0.66 1.98 1 3 C-5.435 8.94 -5.435 8.94 -12 15 C-12.66 14.67 -13.32 14.34 -14 14 C-9.38 9.38 -4.76 4.76 0 0 Z " fill="#ADCBE8" transform="translate(108,140)"/>
<path d="M0 0 C1.9375 0.375 1.9375 0.375 4 1 C4.33 1.66 4.66 2.32 5 3 C4.34 3 3.68 3 3 3 C1.3501993 6.29960141 1.61741639 9.99127884 1.4375 13.625 C1.39431641 14.42679688 1.35113281 15.22859375 1.30664062 16.0546875 C1.20048543 18.0362511 1.09973145 20.01810271 1 22 C0.67 22 0.34 22 0 22 C-0.8388516 14.48905184 -1.0773541 7.49175465 0 0 Z " fill="#99A5AE" transform="translate(169,90)"/>
<path d="M0 0 C3.71045247 1.57780923 6.29906384 3.90703248 9.25 6.625 C10.14203125 7.44226563 11.0340625 8.25953125 11.953125 9.1015625 C12.96632812 10.04128906 12.96632812 10.04128906 14 11 C10.8525787 11 9.71198463 10.399734 7 9 C6.34 9 5.68 9 5 9 C4.67 8.01 4.34 7.02 4 6 C3.34 5.67 2.68 5.34 2 5 C1.27840576 3.35636866 0.60648579 1.68949614 0 0 Z " fill="#B1C3D6" transform="translate(219,119)"/>
<path d="M0 0 C0 3 0 3 -1.75 5.04296875 C-2.4925 5.75066406 -3.235 6.45835937 -4 7.1875 C-4.7425 7.90292969 -5.485 8.61835938 -6.25 9.35546875 C-6.8275 9.89816406 -7.405 10.44085938 -8 11 C-8.33 9.68 -8.66 8.36 -9 7 C-7.68 6.34 -6.36 5.68 -5 5 C-5 4.34 -5 3.68 -5 3 C-2.5 1.375 -2.5 1.375 0 0 Z " fill="#B2C2D3" transform="translate(293,192)"/>
<path d="M0 0 C1.35949488 4.07848463 0.14486103 7.17680945 -0.9375 11.1875 C-1.13279297 11.93708984 -1.32808594 12.68667969 -1.52929688 13.45898438 C-2.01214375 15.30793459 -2.50510633 17.15423776 -3 19 C-3.33 19 -3.66 19 -4 19 C-3.63176001 12.09232563 -2.76081837 6.3618858 0 0 Z " fill="#F6CEBD" transform="translate(35,173)"/>
<path d="M0 0 C0.66 0 1.32 0 2 0 C2.33 0.99 2.66 1.98 3 3 C2.34 3 1.68 3 1 3 C1.33 5.97 1.66 8.94 2 12 C0.68 11.34 -0.64 10.68 -2 10 C-1.54177532 6.53058454 -1.10868317 3.32604951 0 0 Z " fill="#758EA7" transform="translate(173,80)"/>
<path d="M0 0 C0 3 0 3 -1.96875 5.26171875 C-2.8040625 6.06222656 -3.639375 6.86273438 -4.5 7.6875 C-5.3353125 8.49574219 -6.170625 9.30398438 -7.03125 10.13671875 C-7.6809375 10.75160156 -8.330625 11.36648438 -9 12 C-9.625 10.125 -9.625 10.125 -10 8 C-8 6 -8 6 -6.125 5.125 C-3.59843593 3.78740726 -1.94073664 2.07936068 0 0 Z " fill="#BECCDC" transform="translate(214,275)"/>
<path d="M0 0 C0.99 0 1.98 0 3 0 C2.54738642 1.43931117 2.08767021 2.87638999 1.625 4.3125 C1.36976562 5.11300781 1.11453125 5.91351563 0.8515625 6.73828125 C0 9 0 9 -2 12 C-2.28571429 3.42857143 -2.28571429 3.42857143 0 0 Z " fill="#DF8869" transform="translate(49,247)"/>
<path d="M0 0 C0.66 0.33 1.32 0.66 2 1 C-0.97 3.97 -3.94 6.94 -7 10 C-7.33 8.68 -7.66 7.36 -8 6 C-7.34 6 -6.68 6 -6 6 C-5.7525 5.38125 -5.505 4.7625 -5.25 4.125 C-3.78043163 1.62673377 -2.71435596 0.93305986 0 0 Z " fill="#ABBCCF" transform="translate(248,239)"/>
<path d="M0 0 C-3.45889719 4.17950077 -6.98286401 5.32762134 -12 7 C-11.67 6.01 -11.34 5.02 -11 4 C-8.4375 2.8125 -8.4375 2.8125 -6 2 C-6 1.34 -6 0.68 -6 0 C-2.25 -1.125 -2.25 -1.125 0 0 Z " fill="#F29676" transform="translate(99,119)"/>
<path d="M0 0 C2.72574271 0.37330824 3.80822085 0.79194601 5.703125 2.84765625 C6.21359375 3.57855469 6.7240625 4.30945313 7.25 5.0625 C8.03117187 6.16271484 8.03117187 6.16271484 8.828125 7.28515625 C9.21484375 7.85105469 9.6015625 8.41695312 10 9 C9.67 9.66 9.34 10.32 9 11 C7.82737096 9.88121617 6.66204862 8.75476949 5.5 7.625 C4.8503125 6.99851563 4.200625 6.37203125 3.53125 5.7265625 C2 4 2 4 2 2 C1.34 2 0.68 2 0 2 C0 1.34 0 0.68 0 0 Z " fill="#728EAB" transform="translate(86,202)"/>
<path d="M0 0 C0.33 0 0.66 0 1 0 C1.05441656 1.89551022 1.09298035 3.7914792 1.125 5.6875 C1.14820312 6.74324219 1.17140625 7.79898438 1.1953125 8.88671875 C0.99858729 12.02251859 0.33057654 14.17645373 -1 17 C-1.33 17 -1.66 17 -2 17 C-2.21824777 10.9981863 -1.5056904 5.80766296 0 0 Z " fill="#848B9E" transform="translate(90,143)"/>
<path d="M0 0 C0.66 0 1.32 0 2 0 C2.05410687 1.77049689 2.09284119 3.54146849 2.125 5.3125 C2.14820313 6.29863281 2.17140625 7.28476563 2.1953125 8.30078125 C2 11 2 11 0 14 C-0.66 14 -1.32 14 -2 14 C-1.125 9.25 -1.125 9.25 0 7 C0.04022391 4.6670134 0.04320247 2.33293334 0 0 Z " fill="#798FA9" transform="translate(148,90)"/>
<path d="M0 0 C0.66 0 1.32 0 2 0 C2 0.66 2 1.32 2 2 C2.66 2 3.32 2 4 2 C5.625 4 5.625 4 7 6 C6.67 6.66 6.34 7.32 6 8 C4.68 8 3.36 8 2 8 C1.01 8.495 1.01 8.495 0 9 C0.185625 8.071875 0.37125 7.14375 0.5625 6.1875 C1.24123881 2.98656229 1.24123881 2.98656229 0 0 Z " fill="#7FA6D1" transform="translate(88,190)"/>
<path d="M0 0 C0.66 0.33 1.32 0.66 2 1 C1.04882866 2.1725131 0.08882991 3.33787015 -0.875 4.5 C-1.40867188 5.1496875 -1.94234375 5.799375 -2.4921875 6.46875 C-2.98976562 6.9740625 -3.48734375 7.479375 -4 8 C-4.66 8 -5.32 8 -6 8 C-5.4360709 4.72921124 -4.54319569 3.13628438 -2 1 C-1.34 0.67 -0.68 0.34 0 0 Z " fill="#CFE5F7" transform="translate(231,237)"/>
<path d="M0 0 C4.50884026 2.31883213 6.93906776 5.06451569 10 9 C9.01 9.495 9.01 9.495 8 10 C7.67 9.34 7.34 8.68 7 8 C6.01 8 5.02 8 4 8 C3.71125 7.195625 3.4225 6.39125 3.125 5.5625 C2.26737432 2.8673532 2.26737432 2.8673532 0 2 C0 1.34 0 0.68 0 0 Z " fill="#B7C6D7" transform="translate(288,180)"/>
<path d="M0 0 C2.8125 -0.25 2.8125 -0.25 6 0 C7.875 2 7.875 2 9 4 C6.36 4 3.72 4 1 4 C0.67 2.68 0.34 1.36 0 0 Z " fill="#84A2BF" transform="translate(228,131)"/>
<path d="M0 0 C1.65 0 3.3 0 5 0 C4.1875 2.4375 4.1875 2.4375 3 5 C2.01 5.33 1.02 5.66 0 6 C0 4.02 0 2.04 0 0 Z " fill="#DD8059" transform="translate(38,266)"/>
<path d="M0 0 C1.66666667 0 3.33333333 0 5 0 C4.25 5.75 4.25 5.75 2 8 C1.67 6.35 1.34 4.7 1 3 C0.34 3 -0.32 3 -1 3 C-0.67 2.01 -0.34 1.02 0 0 Z " fill="#D4511D" transform="translate(51,232)"/>
<path d="M0 0 C0.33 0 0.66 0 1 0 C1.3125 2.25 1.3125 2.25 1 5 C-1.5 7.3125 -1.5 7.3125 -4 9 C-4.33 7.35 -4.66 5.7 -5 4 C-4.01 4.33 -3.02 4.66 -2 5 C-1.34 3.35 -0.68 1.7 0 0 Z " fill="#D64F1C" transform="translate(63,212)"/>
<path d="M0 0 C0.99 0.33 1.98 0.66 3 1 C3 2.32 3 3.64 3 5 C2.34 5 1.68 5 1 5 C1 6.32 1 7.64 1 9 C0.34 9 -0.32 9 -1 9 C-0.67 6.03 -0.34 3.06 0 0 Z " fill="#D94E16" transform="translate(66,201)"/>
<path d="M0 0 C0.66 0.66 1.32 1.32 2 2 C0.35 3.32 -1.3 4.64 -3 6 C-4.32 5.01 -5.64 4.02 -7 3 C-6.21625 2.690625 -5.4325 2.38125 -4.625 2.0625 C-2.07669872 1.07124962 -2.07669872 1.07124962 0 0 Z " fill="#B2CCE2" transform="translate(272,192)"/>
<path d="M0 0 C0.66 0.33 1.32 0.66 2 1 C-0.88341534 5.21422242 -3.04303419 6.76075855 -8 8 C-5.58443874 4.80800833 -3.31996462 2.25283313 0 0 Z " fill="#F4C4B2" transform="translate(66,136)"/>
<path d="M0 0 C-1.29299694 2.88437779 -2.65941363 4.87219421 -5 7 C-5.99 6.67 -6.98 6.34 -8 6 C-3.375 0 -3.375 0 0 0 Z " fill="#7891AC" transform="translate(143,106)"/>
<path d="M0 0 C0.99 0.33 1.98 0.66 3 1 C1.02 3.31 -0.96 5.62 -3 8 C-3.33 6.68 -3.66 5.36 -4 4 C-3.01 4 -2.02 4 -1 4 C-0.67 2.68 -0.34 1.36 0 0 Z " fill="#A4B6C9" transform="translate(264,220)"/>
<path d="M0 0 C0.78375 0.515625 1.5675 1.03125 2.375 1.5625 C3.24125 2.036875 4.1075 2.51125 5 3 C5.66 2.67 6.32 2.34 7 2 C7.33 3.65 7.66 5.3 8 7 C2.25 5.375 2.25 5.375 0 2 C0 1.34 0 0.68 0 0 Z " fill="#BCCADB" transform="translate(192,95)"/>
<path d="M0 0 C2.36449336 1.18224668 3.43426315 2.54096681 5.125 4.5625 C5.66382813 5.20316406 6.20265625 5.84382813 6.7578125 6.50390625 C7.16773438 6.99761719 7.57765625 7.49132812 8 8 C7.67 8.66 7.34 9.32 7 10 C5.82438854 8.90536178 4.6597511 7.79892814 3.5 6.6875 C2.52546875 5.76517578 2.52546875 5.76517578 1.53125 4.82421875 C0 3 0 3 0 0 Z " fill="#758DA7" transform="translate(142,259)"/>
<path d="M0 0 C0 3.90838866 -1.50567876 5.11594107 -4 8 C-4.99 7.67 -5.98 7.34 -7 7 C-4.69 4.69 -2.38 2.38 0 0 Z " fill="#7A99B8" transform="translate(273,194)"/>
<path d="M0 0 C0.33 0 0.66 0 1 0 C1 2.97 1 5.94 1 9 C-0.32 9.33 -1.64 9.66 -3 10 C-2.34 9.34 -1.68 8.68 -1 8 C-1.165 7.01 -1.33 6.02 -1.5 5 C-1.665 4.01 -1.83 3.02 -2 2 C-1.34 1.34 -0.68 0.68 0 0 Z " fill="#ACAEAD" transform="translate(171,163)"/>
<path d="M0 0 C0.33 1.32 0.66 2.64 1 4 C-0.98 5.32 -2.96 6.64 -5 8 C-3.8141763 4.62496331 -2.72426311 2.35277269 0 0 Z " fill="#EFB7A0" transform="translate(47,154)"/>
<path d="M0 0 C0.99 0.33 1.98 0.66 3 1 C1.35 2.65 -0.3 4.3 -2 6 C-2.99 5.34 -3.98 4.68 -5 4 C-2.6875 1.9375 -2.6875 1.9375 0 0 Z " fill="#ECF6FD" transform="translate(134,118)"/>
<path d="M0 0 C1.32 0.33 2.64 0.66 4 1 C4 1.66 4 2.32 4 3 C4.99 3.33 5.98 3.66 7 4 C7 4.66 7 5.32 7 6 C5.0625 5.6875 5.0625 5.6875 3 5 C2.67 4.01 2.34 3.02 2 2 C1.34 2 0.68 2 0 2 C0 1.34 0 0.68 0 0 Z " fill="#788EA8" transform="translate(208,111)"/>
<path d="M0 0 C0.99 0.33 1.98 0.66 3 1 C3 1.66 3 2.32 3 3 C3.66 3 4.32 3 5 3 C5 3.66 5 4.32 5 5 C5.66 5 6.32 5 7 5 C6.67 5.99 6.34 6.98 6 8 C4.99403703 7.0479279 3.99538437 6.08812654 3 5.125 C2.443125 4.59132813 1.88625 4.05765625 1.3125 3.5078125 C0 2 0 2 0 0 Z " fill="#768CAC" transform="translate(169,288)"/>
<path d="M0 0 C1.65 0.99 3.3 1.98 5 3 C4.38125 3.28875 3.7625 3.5775 3.125 3.875 C0.86674235 4.93720042 0.86674235 4.93720042 -1 7 C-0.67 4.69 -0.34 2.38 0 0 Z " fill="#B1C7DC" transform="translate(171,92)"/>
<path d="M0 0 C1.32 0 2.64 0 4 0 C2.92598892 2.91517292 2.22189824 4.77810176 0 7 C0 4.69 0 2.38 0 0 Z " fill="#E48A70" transform="translate(43,259)"/>
<path d="M0 0 C0 0.99 0 1.98 0 3 C-2 4.6875 -2 4.6875 -4 6 C-4.33 4.68 -4.66 3.36 -5 2 C-3.35 1.34 -1.7 0.68 0 0 Z " fill="#E2EEF8" transform="translate(259,207)"/>
<path d="M0 0 C0.99 0.33 1.98 0.66 3 1 C3.99 1 4.98 1 6 1 C3.03 3.475 3.03 3.475 0 6 C0 4.02 0 2.04 0 0 Z " fill="#E69472" transform="translate(69,202)"/>
<path d="M0 0 C3.96 0 7.92 0 12 0 C11.67 0.99 11.34 1.98 11 3 C7.37 2.34 3.74 1.68 0 1 C0 0.67 0 0.34 0 0 Z " fill="#D7C7CA" transform="translate(75,201)"/>
<path d="M0 0 C0.99 0 1.98 0 3 0 C2.875 1.8125 2.875 1.8125 2 4 C-1.0625 5.75 -1.0625 5.75 -4 7 C-3.34 5.68 -2.68 4.36 -2 3 C-1.34 3 -0.68 3 0 3 C0 2.01 0 1.02 0 0 Z " fill="#9F8E9A" transform="translate(116,117)"/>
</svg>
